<svg width="124" height="125" viewBox="0 0 124 125" fill="none" xmlns="http://www.w3.org/2000/svg">
<path d="M87.3334 62.5002C87.3334 76.6102 75.9875 88.0418 62.0001 88.0418C48.0126 88.0418 36.6667 76.6102 36.6667 62.5002C36.6667 48.3901 48.0126 36.9585 62.0001 36.9585C75.9875 36.9585 87.3334 48.3901 87.3334 62.5002Z" stroke="#151515"/>
<path d="M51.6667 62.5002L51.3118 62.148L50.9625 62.5002L51.3118 62.8523L51.6667 62.5002ZM62.3551 72.5647L52.0217 62.148L51.3118 62.8523L61.6451 73.269L62.3551 72.5647ZM52.0217 62.8523L62.3551 52.4356L61.6451 51.7314L51.3118 62.148L52.0217 62.8523Z" fill="#151515"/>
<path d="M51.6667 62.5H72.3334" stroke="#151515"/>
</svg>
