<svg xmlns="http://www.w3.org/2000/svg" xmlns:xlink="http://www.w3.org/1999/xlink" width="500" zoomAndPan="magnify" viewBox="0 0 375 374.999991" height="500" preserveAspectRatio="xMidYMid meet" version="1.0"><defs><clipPath id="a0a0618cad"><path d="M 0 37.5 L 375 37.5 L 375 312.75 L 0 312.75 Z M 0 37.5 " clip-rule="nonzero"/></clipPath></defs><g clip-path="url(#a0a0618cad)"><path fill="#60941a" d="M 365.386719 217.546875 L 365.386719 47.058594 C 282.523438 47.773438 239.851562 67.160156 218.574219 83.46875 C 197.105469 99.925781 192.765625 116.539062 192.25 118.882812 L 192.25 158.074219 C 195.226562 153.765625 199.097656 149.078125 204.152344 144.273438 C 228.273438 121.378906 266.644531 106.882812 318.203125 101.203125 L 319.246094 110.675781 C 258.308594 117.398438 226.957031 136.078125 211.390625 150.5625 C 196.066406 164.820312 192.699219 177.890625 192.25 179.917969 L 192.25 219.109375 C 195.226562 214.8125 199.097656 210.113281 204.152344 205.308594 C 228.273438 182.417969 266.644531 167.917969 318.203125 162.230469 L 319.246094 171.695312 C 258.308594 178.421875 226.957031 197.113281 211.390625 211.597656 C 196.066406 225.867188 192.699219 238.925781 192.25 240.953125 L 192.25 286.605469 C 196.589844 280.335938 202.847656 273.234375 211.878906 266.164062 C 245.03125 240.230469 298.289062 227.078125 370.15625 227.078125 L 374.925781 227.078125 C 374.925781 227.078125 370.441406 252.515625 347.171875 273.492188 C 327.066406 291.621094 287.589844 312.75 215.78125 312.75 L 208.09375 312.75 L 211.507812 305.878906 C 212.328125 304.230469 232.527344 265.371094 318.785156 255.089844 L 319.910156 264.5625 C 261.542969 271.511719 235.417969 292.144531 225.394531 303.09375 C 287.644531 301.339844 322.144531 282.632812 340.3125 266.820312 C 353.683594 255.195312 360.3125 243.453125 363.328125 236.644531 C 281.820312 237.667969 239.671875 256.859375 218.574219 273.035156 C 204.152344 284.101562 197.457031 295.214844 194.460938 302.046875 C 192.984375 305.421875 192.25 309.070312 192.25 312.75 L 182.710938 312.75 C 182.710938 309.070312 181.976562 305.421875 180.5 302.046875 C 177.503906 295.214844 170.808594 284.101562 156.386719 273.035156 C 135.289062 256.859375 93.144531 237.667969 11.632812 236.644531 C 14.648438 243.453125 21.277344 255.195312 34.648438 266.820312 C 52.816406 282.632812 87.316406 301.339844 149.570312 303.09375 C 139.542969 292.144531 113.421875 271.511719 55.050781 264.5625 L 56.175781 255.089844 C 142.433594 265.371094 162.636719 304.230469 163.457031 305.878906 L 166.871094 312.75 L 159.183594 312.75 C 87.371094 312.75 47.894531 291.621094 27.789062 273.492188 C 4.519531 252.515625 0.0351562 227.078125 0.0351562 227.078125 L 4.804688 227.078125 C 76.671875 227.078125 129.929688 240.230469 163.082031 266.164062 C 172.117188 273.234375 178.371094 280.335938 182.710938 286.605469 L 182.710938 240.953125 C 182.265625 238.925781 178.898438 225.867188 163.570312 211.597656 C 148.003906 197.113281 116.652344 178.421875 55.71875 171.695312 L 56.757812 162.230469 C 108.316406 167.917969 146.6875 182.417969 170.808594 205.308594 C 175.863281 210.113281 179.734375 214.8125 182.710938 219.109375 L 182.710938 179.917969 C 182.265625 177.890625 178.898438 164.820312 163.570312 150.5625 C 148.003906 136.078125 116.652344 117.398438 55.71875 110.675781 L 56.757812 101.203125 C 108.316406 106.882812 146.6875 121.378906 170.808594 144.273438 C 175.863281 149.078125 179.734375 153.765625 182.710938 158.074219 L 182.710938 118.882812 C 182.195312 116.539062 177.855469 99.925781 156.386719 83.46875 C 135.109375 67.160156 92.4375 47.773438 9.574219 47.058594 L 9.574219 217.546875 L 0.0351562 217.546875 L 0.0351562 37.5 L 4.804688 37.5 C 76.671875 37.5 129.929688 50.652344 163.082031 76.59375 C 176.199219 86.859375 183.476562 97.191406 187.480469 104.941406 C 191.488281 97.191406 198.765625 86.859375 211.878906 76.59375 C 245.03125 50.652344 298.289062 37.5 370.15625 37.5 L 374.925781 37.5 L 374.925781 217.546875 Z M 365.386719 217.546875 " fill-opacity="1" fill-rule="nonzero"/></g></svg>