<svg width="888" height="825" viewBox="0 0 888 825" fill="none" xmlns="http://www.w3.org/2000/svg">
<ellipse cx="438.5" cy="185.5" rx="111.5" ry="105.5" fill="#00D1FF"/>
<ellipse cx="620.5" cy="185.5" rx="111.5" ry="105.5" fill="#00D1FF"/>
<ellipse cx="405.5" cy="361.5" rx="111.5" ry="105.5" fill="#DB00FF"/>
<ellipse cx="646.5" cy="361.5" rx="111.5" ry="105.5" fill="#00FFA3"/>
<ellipse cx="373.5" cy="527.5" rx="111.5" ry="105.5" fill="#9E00FF"/>
<ellipse cx="661.5" cy="527.5" rx="111.5" ry="105.5" fill="#DBFF00"/>
<g filter="url(#filter0_b_114_2)">
<path d="M338.484 18.7173C342.424 7.50381 353.015 0 364.901 0H1264.48C1283.78 0 1297.3 19.0719 1290.9 37.2827L1056.52 704.283C1052.58 715.496 1041.99 723 1030.1 723H130.518C111.215 723 97.7018 703.928 104.101 685.717L338.484 18.7173Z" fill="#1C1A1A" fill-opacity="0.75"/>
</g>
<g clip-path="url(#clip0_114_2)">
<path d="M46.1306 719H649.835C650.141 719 650.435 718.876 650.651 718.656C650.867 718.436 650.989 718.137 650.989 717.826C650.989 717.514 650.867 717.215 650.651 716.995C650.435 716.775 650.141 716.651 649.835 716.651H46.1306C45.8246 716.651 45.5312 716.775 45.3148 716.995C45.0985 717.215 44.9769 717.514 44.9769 717.826C44.9769 718.137 45.0985 718.436 45.3148 718.656C45.5312 718.876 45.8246 719 46.1306 719V719Z" fill="#CCCCCC"/>
<path d="M162.119 434.487C126.813 399.104 111.901 362.191 120.129 330.548C130.689 289.941 177.603 261.865 248.84 253.519L249.103 255.848C178.857 264.078 132.66 291.524 122.356 331.148C114.347 361.943 129.043 398.05 163.735 432.817L162.119 434.487Z" fill="#F0F0F0"/>
<path d="M502.772 560.086C458.706 560.086 410.822 553.419 363.259 540.601C304.441 524.749 250.511 500.823 207.299 471.407L208.579 469.459C251.582 498.732 305.273 522.549 363.848 538.334C416.781 552.601 470.111 559.211 518.053 557.467L518.136 559.809C513.073 559.994 507.952 560.086 502.772 560.086Z" fill="#F0F0F0"/>
<path d="M603.863 545.344L603.125 543.123C642.535 529.559 667.185 507.707 674.409 479.93C683.592 444.618 663.642 403.641 618.234 364.547C572.595 325.254 506.782 292.651 432.917 272.744L433.506 270.478C507.694 290.472 573.827 323.244 619.721 362.757C665.846 402.468 686.058 444.294 676.635 480.53C669.204 509.104 644.04 531.516 603.863 545.344Z" fill="black"/>
<path d="M241.984 561.065C155.399 521.972 88.678 471.254 54.1137 418.252L56.0319 416.955C90.3572 469.59 156.728 520.008 242.917 558.923L241.984 561.065Z" fill="#F0F0F0"/>
<path d="M546.412 628.791C537.481 628.791 528.397 628.588 519.161 628.182L519.26 625.84C588.185 628.878 648.999 620.481 695.139 601.552L696 603.727C655.751 620.237 604.45 628.791 546.412 628.791Z" fill="#F0F0F0"/>
<path d="M496.174 255.621C481.863 250.878 467.142 246.461 452.422 242.494C367.713 219.664 284.442 211.559 211.61 219.058L211.379 216.725C284.482 209.202 368.038 217.327 453.011 240.227C467.773 244.206 482.535 248.635 496.886 253.392L496.174 255.621Z" fill="#F0F0F0"/>
<path d="M108.006 438.003C72.6989 402.621 57.7869 365.707 66.0157 334.065C76.5757 293.458 123.489 265.382 194.726 257.035L194.989 259.364C124.744 267.594 78.5462 295.04 68.2419 334.664C60.2336 365.459 74.9291 401.566 109.622 436.333L108.006 438.003Z" fill="#F0F0F0"/>
<path d="M448.658 563.602C404.593 563.602 356.708 556.935 309.145 544.117C250.327 528.265 196.397 504.339 153.186 474.923L154.465 472.975C197.469 502.248 251.159 526.065 309.734 541.851C362.667 556.117 415.997 562.727 463.939 560.983L464.022 563.325C458.959 563.51 453.838 563.602 448.658 563.602Z" fill="black"/>
<path d="M549.749 548.86L549.011 546.64C588.422 533.075 613.071 511.224 620.295 483.446C629.478 448.134 609.528 407.157 564.121 368.063C518.481 328.77 452.669 296.167 378.803 276.261L379.392 273.994C453.58 293.988 519.714 326.76 565.607 366.273C611.732 405.985 631.945 447.811 622.521 484.046C615.09 512.62 589.926 535.032 549.749 548.86Z" fill="#F0F0F0"/>
<path d="M187.87 564.581C101.285 525.488 34.5642 474.77 -3.8147e-06 421.768L1.9182 420.471C36.2435 473.106 102.614 523.524 188.804 562.439L187.87 564.581Z" fill="#F0F0F0"/>
<path d="M492.298 632.307C483.367 632.307 474.284 632.104 465.048 631.698L465.147 629.356C534.072 632.394 594.885 623.997 641.025 605.069L641.886 607.244C601.637 623.753 550.337 632.307 492.298 632.307Z" fill="#F0F0F0"/>
<path d="M442.06 259.137C427.749 254.394 413.029 249.977 398.309 246.01C313.599 223.181 230.329 215.075 157.497 222.574L157.265 220.241C230.369 212.718 313.924 220.843 398.898 243.744C413.66 247.722 428.421 252.151 442.773 256.909L442.06 259.137Z" fill="#F0F0F0"/>
<path d="M39.2485 375.216C55.7961 356.329 82.1922 344.818 106.113 351.709C84.0451 367.607 68.2124 390.939 61.4161 417.577C58.8316 427.86 57.0088 439.571 48.6084 445.858C43.3815 449.77 36.4557 450.704 30.0277 449.813C23.5994 448.922 17.5213 446.377 11.5251 443.856L9.91171 443.998C14.5505 419.135 22.7009 394.104 39.2485 375.216Z" fill="#F2F2F2"/>
<path d="M106.04 352.235C86.0406 357.164 68.0753 368.384 54.696 384.299C51.756 387.673 49.3568 391.498 47.5868 395.633C45.9904 399.717 45.4976 404.162 46.1595 408.506C46.6967 412.569 47.7084 416.662 47.2662 420.787C47.009 422.895 46.3169 424.924 45.2354 426.741C44.1539 428.558 42.7074 430.121 40.9907 431.329C36.79 434.451 31.7378 435.851 26.7504 437.045C21.2128 438.371 15.4403 439.659 10.9263 443.406C10.3794 443.86 9.71947 442.969 10.2656 442.516C18.1192 435.998 29.034 436.835 37.7233 432.1C41.7778 429.891 45.203 426.425 46.0358 421.668C46.764 417.509 45.7242 413.287 45.1453 409.178C44.4386 404.95 44.7596 400.61 46.0802 396.538C47.6378 392.325 49.8882 388.412 52.7352 384.968C59.0232 377.109 66.4859 370.306 74.8499 364.807C84.3615 358.477 94.8666 353.85 105.911 351.127C106.594 350.959 106.719 352.068 106.04 352.235H106.04Z" fill="white"/>
<path d="M58.7077 378.916C56.3895 376.268 55.0712 372.868 54.9883 369.322C54.9054 365.776 56.0633 362.316 58.2553 359.559C58.7007 359.003 59.5707 359.681 59.1248 360.238C57.0789 362.802 56.0006 366.025 56.0844 369.327C56.1682 372.629 57.4087 375.791 59.5818 378.244C60.0534 378.777 59.1767 379.447 58.7077 378.916Z" fill="white"/>
<path d="M45.6205 406.483C52.727 406.963 59.7504 404.699 65.2901 400.142C65.8386 399.691 66.4987 400.581 65.9508 401.032C60.1774 405.763 52.8638 408.104 45.4697 407.588C44.765 407.538 44.9196 406.433 45.6205 406.483Z" fill="white"/>
<path d="M84.6077 359.935C85.295 361.149 86.2679 362.171 87.4391 362.909C88.6102 363.646 89.943 364.076 91.3175 364.159C92.0226 364.2 91.8671 365.304 91.1668 365.264C89.6485 365.165 88.1772 364.688 86.8815 363.876C85.5858 363.065 84.505 361.942 83.7337 360.607C83.6507 360.488 83.6155 360.34 83.6353 360.195C83.6551 360.05 83.7284 359.918 83.8404 359.826C83.9565 359.738 84.1023 359.699 84.246 359.72C84.3897 359.74 84.5197 359.817 84.6078 359.935L84.6077 359.935Z" fill="white"/>
<path d="M140.069 430.115C139.628 430.102 139.187 430.09 138.741 430.084C132.812 429.946 126.882 430.298 121.009 431.138C120.554 431.195 120.094 431.261 119.641 431.331C105.514 433.507 91.9055 438.334 79.5088 445.566C74.5784 448.449 69.8706 451.709 65.4261 455.319C59.2884 460.305 53.0233 466.208 45.8376 468.763C45.0909 469.038 44.3281 469.266 43.5537 469.445L10.2072 445.991C10.1577 445.899 10.1026 445.814 10.0527 445.722L8.67925 444.847C8.89569 444.645 9.12446 444.44 9.34092 444.237C9.466 444.119 9.59853 444.007 9.72355 443.889C9.80928 443.812 9.89544 443.735 9.96847 443.66C9.99693 443.635 10.0258 443.609 10.049 443.591C10.1221 443.517 10.1976 443.455 10.2654 443.389C11.541 442.238 12.8268 441.094 14.1227 439.957C14.128 439.949 14.128 439.949 14.1407 439.947C23.9342 431.189 34.7137 423.645 46.2531 417.473C46.5999 417.294 46.9516 417.106 47.3136 416.938C52.5231 414.277 57.9376 412.054 63.5029 410.291C66.5533 409.336 69.6492 408.539 72.7789 407.902C80.8685 406.273 89.1594 405.95 97.3478 406.944C113.671 408.927 129.189 416.203 139.306 429.12C139.564 429.451 139.816 429.776 140.069 430.115Z" fill="#F2F2F2"/>
<path d="M139.702 430.493C120.818 422.171 99.8384 420.118 79.743 424.625C75.4 425.517 71.2223 427.101 67.3636 429.317C63.6734 431.6 60.6509 434.847 58.6103 438.721C56.6364 442.295 55.0237 446.182 52.2309 449.205C50.7788 450.731 49.0262 451.926 47.0882 452.714C45.1502 453.502 43.0705 453.864 40.9856 453.776C35.7848 453.694 30.923 451.716 26.2345 449.612C21.0289 447.277 15.6583 444.767 9.83841 444.992C9.13323 445.019 9.13301 443.903 9.83708 443.876C19.9627 443.486 28.1825 450.843 37.9205 452.389C42.4643 453.11 47.2493 452.442 50.7273 449.154C53.7687 446.28 55.4351 442.272 57.4031 438.636C59.3394 434.827 62.1623 431.559 65.6254 429.117C69.3607 426.707 73.4716 424.963 77.7819 423.957C87.4503 421.537 97.4326 420.678 107.363 421.414C118.701 422.19 129.825 424.935 140.254 429.529C140.899 429.814 140.343 430.776 139.702 430.493H139.702Z" fill="white"/>
<path d="M86.1297 422.786C85.8446 419.251 86.803 415.728 88.8339 412.846C90.8648 409.964 93.8359 407.911 97.2165 407.053C97.9011 406.882 98.1946 407.957 97.5091 408.129C94.3595 408.921 91.5922 410.834 89.7064 413.522C87.8206 416.21 86.9407 419.495 87.2254 422.785C87.2864 423.5 86.1904 423.497 86.1297 422.786Z" fill="white"/>
<path d="M59.3768 436.775C64.7668 441.515 71.7135 444.012 78.8316 443.769C79.5369 443.744 79.5373 444.859 78.833 444.884C71.4251 445.123 64.2012 442.509 58.6029 437.565C58.0697 437.093 58.8464 436.306 59.3768 436.775V436.775Z" fill="white"/>
<path d="M118.035 423.505C117.866 424.896 118.038 426.308 118.537 427.615C119.036 428.921 119.846 430.081 120.894 430.99C121.433 431.455 120.656 432.241 120.121 431.78C118.967 430.77 118.074 429.488 117.52 428.046C116.965 426.603 116.766 425.045 116.94 423.506C116.944 423.36 117.003 423.22 117.105 423.117C117.206 423.013 117.343 422.953 117.487 422.948C117.632 422.948 117.771 423.007 117.874 423.111C117.976 423.216 118.034 423.357 118.035 423.505H118.035Z" fill="white"/>
<path d="M687.642 530.044C678.292 506.594 657.232 486.721 632.428 485.026C647.963 507.55 655.172 534.942 652.778 562.356C651.817 572.925 649.668 584.578 655.504 593.373C659.135 598.846 665.349 602.096 671.697 603.456C678.046 604.817 684.611 604.499 691.091 604.176L692.563 604.862C696.403 579.858 696.991 553.494 687.642 530.044Z" fill="#682773"/>
<path d="M632.323 485.547C649.532 497.032 662.748 513.746 670.094 533.313C671.749 537.497 672.746 541.92 673.048 546.42C673.203 550.813 672.2 555.168 670.142 559.033C668.295 562.676 665.991 566.184 665.045 570.22C664.591 572.294 664.573 574.442 664.992 576.523C665.411 578.604 666.257 580.571 667.475 582.296C670.4 586.674 674.697 589.721 679 592.553C683.777 595.696 688.789 598.884 691.803 603.957C692.168 604.572 693.084 603.959 692.719 603.345C687.475 594.519 676.918 591.573 670.298 584.141C667.208 580.673 665.127 576.236 665.913 571.471C666.6 567.305 668.973 563.685 670.875 560.013C672.937 556.273 674.067 552.075 674.168 547.788C674.092 543.287 673.264 538.832 671.72 534.614C668.393 525.061 663.61 516.1 657.548 508.059C650.68 498.843 642.313 490.891 632.811 484.547C632.222 484.155 631.739 485.157 632.323 485.546V485.547Z" fill="white"/>
<path d="M668.093 526.87C671.151 525.17 673.515 522.419 674.764 519.107C676.012 515.796 676.064 512.141 674.91 508.794C674.674 508.118 673.631 508.459 673.867 509.137C674.947 512.251 674.899 515.656 673.73 518.737C672.561 521.818 670.348 524.372 667.492 525.938C666.871 526.279 667.476 527.21 668.093 526.87Z" fill="white"/>
<path d="M671.317 557.311C664.466 555.332 658.598 550.797 654.885 544.61C654.518 543.997 653.602 544.609 653.969 545.222C657.845 551.653 663.96 556.36 671.095 558.404C671.775 558.598 671.994 557.505 671.317 557.311V557.311Z" fill="white"/>
<path d="M649.966 500.131C648.918 501.04 647.664 501.67 646.318 501.964C644.971 502.257 643.574 502.206 642.252 501.814C641.575 501.611 641.357 502.705 642.03 502.907C643.492 503.332 645.035 503.387 646.524 503.066C648.012 502.745 649.4 502.058 650.568 501.064C650.685 500.98 650.767 500.853 650.796 500.71C650.826 500.566 650.8 500.417 650.725 500.292C650.645 500.169 650.52 500.083 650.378 500.053C650.236 500.023 650.088 500.051 649.967 500.131H649.966Z" fill="white"/>
<path d="M574.561 547.253C574.98 547.392 575.4 547.531 575.822 547.679C581.452 549.577 586.92 551.938 592.174 554.738C592.584 554.948 592.996 555.166 593.399 555.388C605.986 562.271 617.209 571.473 626.497 582.526C630.189 586.928 633.546 591.61 636.54 596.53C640.675 603.326 644.627 611.029 650.551 615.894C651.163 616.409 651.806 616.884 652.477 617.318L691.627 606.638C691.704 606.568 691.784 606.507 691.861 606.437L693.443 606.084C693.306 605.819 693.159 605.547 693.022 605.282C692.943 605.129 692.855 604.977 692.776 604.823C692.721 604.721 692.665 604.619 692.621 604.524C692.603 604.49 692.584 604.456 692.568 604.432C692.524 604.336 692.473 604.253 692.431 604.167C691.61 602.646 690.776 601.129 689.931 599.615C689.929 599.606 689.929 599.606 689.918 599.599C683.585 588 675.923 577.207 667.093 567.446C666.826 567.158 666.556 566.861 666.271 566.579C662.243 562.29 657.877 558.344 653.218 554.78C650.66 552.836 648.008 551.026 645.27 549.356C638.189 545.054 630.487 541.912 622.447 540.047C606.419 536.33 589.401 537.873 575.608 546.577C575.256 546.8 574.911 547.021 574.561 547.253Z" fill="#F2F2F2"/>
<path d="M574.782 547.735C595.315 546.358 615.752 551.603 633.19 562.723C636.986 565.05 640.398 567.97 643.3 571.378C646.022 574.791 647.797 578.883 648.439 583.23C649.119 587.271 649.354 591.484 650.987 595.287C651.851 597.22 653.106 598.946 654.672 600.351C656.237 601.756 658.076 602.808 660.069 603.439C664.994 605.142 670.226 604.942 675.336 604.565C681.01 604.146 686.897 603.62 692.304 605.823C692.959 606.09 693.328 605.039 692.674 604.773C683.266 600.94 673.095 605.058 663.413 603.182C658.896 602.306 654.61 600.039 652.419 595.753C650.504 592.005 650.258 587.66 649.605 583.563C649.039 579.313 647.459 575.269 645.004 571.784C642.281 568.236 638.985 565.187 635.258 562.765C626.951 557.177 617.833 552.953 608.237 550.249C597.303 547.1 585.92 545.879 574.581 546.638C573.879 546.685 574.085 547.782 574.782 547.735V547.735Z" fill="#682773"/>
<path d="M627.782 558.806C629.218 555.574 629.478 551.928 628.517 548.519C627.556 545.11 625.435 542.16 622.535 540.195C621.946 539.8 621.315 540.712 621.904 541.108C624.609 542.932 626.584 545.68 627.472 548.857C628.361 552.033 628.105 555.429 626.751 558.43C626.457 559.082 627.49 559.455 627.782 558.806L627.782 558.806Z" fill="#682773"/>
<path d="M648.36 581.135C641.719 583.754 634.352 583.729 627.728 581.065C627.072 580.8 626.703 581.851 627.359 582.115C634.257 584.875 641.923 584.885 648.828 582.143C649.486 581.882 649.015 580.875 648.36 581.135V581.135Z" fill="#682773"/>
<path d="M597.495 548.566C597.196 549.934 596.567 551.206 595.666 552.265C594.764 553.325 593.618 554.14 592.331 554.638C591.67 554.891 592.143 555.898 592.799 555.647C594.219 555.09 595.483 554.188 596.482 553.019C597.48 551.851 598.182 550.451 598.527 548.942C598.571 548.803 598.561 548.652 598.5 548.519C598.438 548.387 598.329 548.283 598.196 548.229C598.059 548.18 597.909 548.188 597.777 548.251C597.646 548.314 597.545 548.427 597.495 548.566V548.566Z" fill="#682773"/>
<path d="M195.412 349.804C200.499 349.804 204.623 345.606 204.623 340.428C204.623 335.249 200.499 331.051 195.412 331.051C190.325 331.051 186.202 335.249 186.202 340.428C186.202 345.606 190.325 349.804 195.412 349.804Z" fill="#FD6584"/>
<path d="M547.978 442.315C548.793 437.203 545.383 432.387 540.362 431.557C535.34 430.728 530.609 434.199 529.794 439.311C528.979 444.423 532.389 449.239 537.411 450.068C542.432 450.898 547.163 447.427 547.978 442.315Z" fill="#E6E6E6"/>
<path d="M195.038 244.284C200.125 244.284 204.249 240.086 204.249 234.908C204.249 229.729 200.125 225.531 195.038 225.531C189.951 225.531 185.827 229.729 185.827 234.908C185.827 240.086 189.951 244.284 195.038 244.284Z" fill="#E6E6E6"/>
<path d="M425.145 594.748H270.093C269.038 594.748 268.026 594.322 267.28 593.562C266.534 592.803 266.115 591.772 266.115 590.698C266.115 589.624 266.534 588.594 267.28 587.835C268.026 587.075 269.038 586.648 270.093 586.648H425.145C426.2 586.648 427.212 587.075 427.958 587.835C428.705 588.594 429.124 589.624 429.124 590.698C429.124 591.772 428.705 592.803 427.958 593.562C427.212 594.322 426.2 594.748 425.145 594.748V594.748Z" fill="#CCCCCC"/>
<path d="M350.576 482.916C390.396 482.916 422.677 450.054 422.677 409.517C422.677 368.98 390.396 336.119 350.576 336.119C310.756 336.119 278.476 368.98 278.476 409.517C278.476 450.054 310.756 482.916 350.576 482.916Z" fill="#D1D3D4"/>
<path d="M350.576 479.732C386.904 479.732 416.354 449.752 416.354 412.77C416.354 375.788 386.904 345.808 350.576 345.808C314.249 345.808 284.799 375.788 284.799 412.77C284.799 449.752 314.249 479.732 350.576 479.732Z" fill="#682773"/>
<path d="M308.83 251.526C311.182 251.526 313.088 249.585 313.088 247.191C313.088 244.797 311.182 242.856 308.83 242.856C306.478 242.856 304.572 244.797 304.572 247.191C304.572 249.585 306.478 251.526 308.83 251.526Z" fill="black"/>
<path opacity="0.16" d="M350.576 470.455C333.935 470.453 317.913 464.029 305.74 452.477C293.567 440.926 286.149 425.106 284.979 408.207C284.873 409.766 284.799 411.334 284.799 412.921C284.799 430.68 291.729 447.712 304.065 460.27C316.401 472.828 333.131 479.883 350.576 479.883C368.022 479.883 384.752 472.828 397.088 460.27C409.424 447.712 416.354 430.68 416.354 412.921C416.354 411.334 416.28 409.766 416.173 408.207C415.004 425.106 407.585 440.926 395.413 452.477C383.24 464.029 367.218 470.453 350.576 470.455V470.455Z" fill="#231F20"/>
<path d="M443.312 466.803L495.474 468.97L501.861 433.207L457.15 419.12L443.312 466.803Z" fill="#FFB8B8"/>
<path d="M463.027 389.345L463.531 372.45L438.251 365.997L392.735 352.48C392.132 350.619 390.989 348.989 389.457 347.804C387.925 346.62 386.075 345.937 384.153 345.846C382.231 345.754 380.327 346.259 378.693 347.293C377.059 348.328 375.772 349.843 375.002 351.638C374.233 353.433 374.016 355.423 374.382 357.346C374.748 359.269 375.678 361.034 377.05 362.407C378.423 363.78 380.172 364.696 382.067 365.035C383.962 365.374 385.914 365.119 387.663 364.304L431.913 382.821L463.027 389.345Z" fill="#FFB8B8"/>
<path d="M446.736 389.227L460.958 368.577L461.313 368.626C461.536 368.656 483.838 371.693 498.459 376.125C500.103 376.569 501.631 377.371 502.938 378.478C504.246 379.584 505.3 380.968 506.028 382.531C507.073 384.717 507.468 387.165 507.165 389.576C506.862 391.987 505.875 394.255 504.323 396.102C502.744 398.099 500.633 399.591 498.244 400.4C495.854 401.208 493.286 401.299 490.847 400.661L446.736 389.227Z" fill="#682773"/>
<path d="M455.745 702.284L441.278 702.283L434.396 645.48L455.746 645.481L455.745 702.284Z" fill="#FFB8B8"/>
<path d="M568.384 695.909L554.08 698.11L538.933 642.992L557.685 639.744L568.384 695.909Z" fill="#FFB8B8"/>
<path d="M497.603 458.133L447.57 449.463L445.79 453.198C436.214 473.315 430.56 495.132 429.141 517.44C427.933 536.272 427.222 556.162 427.198 577.012C427.162 609.317 428.782 639.292 431.341 666.567L458.802 666.392C458.008 637.434 459.088 608.453 462.035 579.639C464.136 559.093 467.059 539.9 470.437 522.19C476.706 548.189 485.554 573.472 496.843 597.65C506.44 618.309 526.178 642.19 535.774 662.849C545.607 661.647 555.44 660.446 565.274 659.245C557.524 638.383 543.7 607.919 535.951 587.057C524.871 557.228 519.866 537.003 508.786 507.174C509.418 501.567 509.542 495.913 509.155 490.282C508.639 480.898 506.721 469.636 501.116 462.129L497.603 458.133Z" fill="#2F2E41"/>
<path d="M505.333 442.585C507.831 447.339 501.897 457.189 497.603 458.133L448.125 441.852L473.038 368.361L485.572 370.68L505.619 374.118L512.73 380.698C514.52 382.356 515.799 384.509 516.411 386.893C517.023 389.278 516.942 391.792 516.178 394.13L505.333 442.585Z" fill="#682773"/>
<path d="M471.272 414.183L457.275 405.09L438.885 423.891L404.172 456.768C402.294 456.342 400.333 456.507 398.549 457.24C396.765 457.973 395.241 459.241 394.18 460.875C393.119 462.509 392.57 464.432 392.606 466.39C392.642 468.349 393.261 470.25 394.381 471.842C395.501 473.435 397.07 474.643 398.88 475.308C400.69 475.973 402.655 476.063 404.516 475.566C406.378 475.069 408.047 474.009 409.303 472.525C410.559 471.042 411.343 469.205 411.552 467.258L449.835 438.048L471.272 414.183Z" fill="#FFB8B8"/>
<path d="M462.83 428.367L452.69 405.358L452.912 405.072C453.052 404.892 467.036 386.946 478.262 376.431C479.478 375.221 480.938 374.296 482.541 373.719C484.144 373.143 485.851 372.929 487.543 373.094C489.922 373.3 492.189 374.208 494.068 375.707C495.947 377.207 497.356 379.232 498.12 381.534C498.997 383.937 499.175 386.546 498.633 389.05C498.092 391.553 496.853 393.845 495.066 395.651L462.83 428.367Z" fill="#682773"/>
<path d="M494.37 363.45C506.523 363.45 516.375 353.42 516.375 341.048C516.375 328.676 506.523 318.647 494.37 318.647C482.217 318.647 472.365 328.676 472.365 341.048C472.365 353.42 482.217 363.45 494.37 363.45Z" fill="#FFB8B8"/>
<path d="M512.142 373.509L512.057 373.487L480.079 365.345C478.971 365.063 477.944 364.52 477.079 363.761C476.214 363.001 475.536 362.046 475.099 360.972C474.662 359.897 474.479 358.734 474.563 357.574C474.648 356.415 474.998 355.291 475.586 354.294L476.643 352.505C477.674 350.758 478.259 348.776 478.345 346.74C478.431 344.703 478.014 342.677 477.133 340.847C475.619 337.858 473.013 335.592 469.876 334.536L469.77 334.484L469.098 334.059C468.438 333.742 467.851 333.288 467.373 332.726C466.895 332.164 466.538 331.507 466.325 330.796C466.103 330.06 466.035 329.285 466.127 328.52C466.218 327.756 466.465 327.019 466.854 326.358C469.677 321.551 473.902 317.76 478.94 315.511C485.306 312.721 492.476 312.502 498.995 314.898C499.429 314.492 499.956 314.201 500.527 314.054C501.099 313.906 501.698 313.905 502.27 314.051C518.83 318.134 520.193 329.45 516.922 347.614L520.794 363.514C521.068 364.637 521.098 365.806 520.883 366.942C520.668 368.078 520.212 369.152 519.548 370.091C518.884 371.029 518.026 371.809 517.036 372.376C516.046 372.943 514.946 373.284 513.813 373.375L512.142 373.509ZM498.818 315.077L498.816 315.079L498.818 315.077ZM499.217 314.977L499.22 314.978L499.217 314.977Z" fill="#2F2E41"/>
<path d="M459.27 717.009H451.014L449.54 709.074L445.766 717.009H423.868C422.818 717.009 421.796 716.668 420.951 716.035C420.105 715.401 419.481 714.51 419.168 713.489C418.856 712.469 418.872 711.374 419.214 710.364C419.557 709.354 420.207 708.482 421.071 707.875L438.558 695.58V687.558L456.951 688.676L459.27 717.009Z" fill="#2F2E41"/>
<path d="M570.686 717.009H562.43L560.956 709.074L557.182 717.009H535.284C534.235 717.009 533.213 716.668 532.367 716.035C531.522 715.401 530.897 714.51 530.585 713.489C530.272 712.469 530.289 711.374 530.631 710.364C530.973 709.354 531.624 708.482 532.487 707.875L549.974 695.58V687.558L568.367 688.676L570.686 717.009Z" fill="#2F2E41"/>
</g>
<path d="M246 94.5C329.333 67.8333 506.7 48.2 549.5 183C592.3 317.8 740 303.5 808.5 279.5C854.833 262.833 948.6 213.2 953 148M229.5 166.5L311 220M747.5 166.5L486.5 257L311 220M747.5 166.5L1008.5 279.5M747.5 166.5C741.5 172.5 454 204.667 311 220M564.5 947.5L1036 614.5" stroke="white" stroke-width="3"/>
<defs>
<filter id="filter0_b_114_2" x="-97.5056" y="-200" width="1590.01" height="1123" filterUnits="userSpaceOnUse" color-interpolation-filters="sRGB">
<feFlood flood-opacity="0" result="BackgroundImageFix"/>
<feGaussianBlur in="BackgroundImageFix" stdDeviation="100"/>
<feComposite in2="SourceAlpha" operator="in" result="effect1_backgroundBlur_114_2"/>
<feBlend mode="normal" in="SourceGraphic" in2="effect1_backgroundBlur_114_2" result="shape"/>
</filter>
<clipPath id="clip0_114_2">
<rect width="696" height="505" fill="white" transform="translate(0 214)"/>
</clipPath>
</defs>
</svg>
