<svg xmlns="http://www.w3.org/2000/svg" xmlns:xlink="http://www.w3.org/1999/xlink" width="500" zoomAndPan="magnify" viewBox="0 0 375 374.999991" height="500" preserveAspectRatio="xMidYMid meet" version="1.0"><defs><g/><clipPath id="b45caf1924"><path d="M 132.167969 114.390625 L 243.167969 114.390625 L 243.167969 195.390625 L 132.167969 195.390625 Z M 132.167969 114.390625 " clip-rule="nonzero"/></clipPath></defs><rect x="-37.5" width="450" fill="#ffffff" y="-37.499999" height="449.999989" fill-opacity="1"/><rect x="-37.5" width="450" fill="#ffffff" y="-37.499999" height="449.999989" fill-opacity="1"/><rect x="-37.5" width="450" fill="#ffffff" y="-37.499999" height="449.999989" fill-opacity="1"/><g clip-path="url(#b45caf1924)"><path fill="#60941a" d="M 240.324219 167.371094 L 240.324219 117.203125 C 215.796875 117.414062 203.164062 123.117188 196.867188 127.914062 C 190.511719 132.757812 189.226562 137.648438 189.074219 138.339844 L 189.074219 149.871094 C 189.957031 148.601562 191.101562 147.222656 192.597656 145.808594 C 199.738281 139.074219 211.09375 134.808594 226.355469 133.136719 L 226.664062 135.921875 C 208.628906 137.902344 199.347656 143.398438 194.742188 147.660156 C 190.203125 151.855469 189.207031 155.703125 189.074219 156.300781 L 189.074219 167.832031 C 189.957031 166.566406 191.101562 165.183594 192.597656 163.769531 C 199.738281 157.035156 211.09375 152.769531 226.355469 151.09375 L 226.664062 153.878906 C 208.628906 155.859375 199.347656 161.359375 194.742188 165.621094 C 190.203125 169.820312 189.207031 173.664062 189.074219 174.261719 L 189.074219 187.695312 C 190.359375 185.851562 192.210938 183.761719 194.886719 181.679688 C 204.699219 174.046875 220.460938 170.175781 241.734375 170.175781 L 243.144531 170.175781 C 243.144531 170.175781 241.820312 177.664062 234.929688 183.835938 C 228.980469 189.171875 217.292969 195.390625 196.039062 195.390625 L 193.765625 195.390625 L 194.773438 193.367188 C 195.015625 192.882812 200.996094 181.445312 226.527344 178.421875 L 226.863281 181.207031 C 209.585938 183.253906 201.851562 189.324219 198.886719 192.546875 C 217.3125 192.03125 227.523438 186.527344 232.902344 181.871094 C 236.859375 178.453125 238.820312 174.996094 239.710938 172.992188 C 215.585938 173.292969 203.113281 178.941406 196.867188 183.703125 C 192.597656 186.957031 190.617188 190.226562 189.730469 192.238281 C 189.292969 193.230469 189.074219 194.304688 189.074219 195.390625 L 186.25 195.390625 C 186.25 194.304688 186.035156 193.230469 185.597656 192.238281 C 184.710938 190.226562 182.730469 186.957031 178.460938 183.703125 C 172.214844 178.941406 159.738281 173.292969 135.613281 172.992188 C 136.507812 174.996094 138.46875 178.453125 142.425781 181.871094 C 147.804688 186.527344 158.015625 192.03125 176.441406 192.546875 C 173.472656 189.324219 165.742188 183.253906 148.464844 181.207031 L 148.796875 178.421875 C 174.328125 181.445312 180.308594 192.882812 180.550781 193.367188 L 181.5625 195.390625 L 179.289062 195.390625 C 158.03125 195.390625 146.347656 189.171875 140.394531 183.835938 C 133.507812 177.664062 132.179688 170.175781 132.179688 170.175781 L 133.59375 170.175781 C 154.863281 170.175781 170.628906 174.046875 180.441406 181.679688 C 183.117188 183.761719 184.96875 185.851562 186.25 187.695312 L 186.25 174.261719 C 186.121094 173.664062 185.121094 169.820312 180.585938 165.621094 C 175.980469 161.359375 166.699219 155.859375 148.664062 153.878906 L 148.96875 151.09375 C 164.230469 152.769531 175.589844 157.035156 182.730469 163.769531 C 184.226562 165.183594 185.371094 166.566406 186.25 167.832031 L 186.25 156.300781 C 186.117188 155.703125 185.121094 151.855469 180.585938 147.660156 C 175.980469 143.398438 166.699219 137.902344 148.664062 135.921875 L 148.96875 133.136719 C 164.230469 134.808594 175.589844 139.074219 182.730469 145.808594 C 184.226562 147.222656 185.371094 148.601562 186.25 149.871094 L 186.25 138.339844 C 186.097656 137.648438 184.816406 132.757812 178.460938 127.914062 C 172.160156 123.117188 159.53125 117.414062 135.003906 117.203125 L 135.003906 167.371094 L 132.179688 167.371094 L 132.179688 114.390625 L 133.59375 114.390625 C 154.863281 114.390625 170.628906 118.257812 180.441406 125.894531 C 184.324219 128.914062 186.476562 131.953125 187.664062 134.234375 C 188.847656 131.953125 191.003906 128.914062 194.886719 125.894531 C 204.699219 118.257812 220.460938 114.390625 241.734375 114.390625 L 243.144531 114.390625 L 243.144531 167.371094 Z M 240.324219 167.371094 " fill-opacity="1" fill-rule="nonzero"/></g><g fill="#53494c" fill-opacity="1"><g transform="translate(130.532816, 229.171567)"><g><path d="M 11.640625 0 L 8.671875 -4.296875 L 5.390625 -4.296875 L 5.390625 0 L 1.828125 0 L 1.828125 -15.40625 L 8.484375 -15.40625 C 9.847656 -15.40625 11.03125 -15.175781 12.03125 -14.71875 C 13.039062 -14.257812 13.816406 -13.613281 14.359375 -12.78125 C 14.910156 -11.945312 15.1875 -10.957031 15.1875 -9.8125 C 15.1875 -8.664062 14.910156 -7.675781 14.359375 -6.84375 C 13.804688 -6.019531 13.023438 -5.390625 12.015625 -4.953125 L 15.46875 0 Z M 11.578125 -9.8125 C 11.578125 -10.675781 11.296875 -11.335938 10.734375 -11.796875 C 10.179688 -12.265625 9.367188 -12.5 8.296875 -12.5 L 5.390625 -12.5 L 5.390625 -7.125 L 8.296875 -7.125 C 9.367188 -7.125 10.179688 -7.359375 10.734375 -7.828125 C 11.296875 -8.296875 11.578125 -8.957031 11.578125 -9.8125 Z M 11.578125 -9.8125 "/></g></g></g><g fill="#53494c" fill-opacity="1"><g transform="translate(149.999947, 229.171567)"><g><path d="M 11.96875 -3.296875 L 4.8125 -3.296875 L 3.453125 0 L -0.203125 0 L 6.671875 -15.40625 L 10.1875 -15.40625 L 17.078125 0 L 13.328125 0 Z M 10.84375 -6 L 8.40625 -11.90625 L 5.96875 -6 Z M 10.84375 -6 "/></g></g></g><g fill="#53494c" fill-opacity="1"><g transform="translate(170.148963, 229.171567)"><g><path d="M 8.484375 -15.40625 C 9.847656 -15.40625 11.03125 -15.175781 12.03125 -14.71875 C 13.039062 -14.257812 13.816406 -13.613281 14.359375 -12.78125 C 14.910156 -11.945312 15.1875 -10.957031 15.1875 -9.8125 C 15.1875 -8.6875 14.910156 -7.703125 14.359375 -6.859375 C 13.816406 -6.015625 13.039062 -5.367188 12.03125 -4.921875 C 11.03125 -4.472656 9.847656 -4.25 8.484375 -4.25 L 5.390625 -4.25 L 5.390625 0 L 1.828125 0 L 1.828125 -15.40625 Z M 8.296875 -7.15625 C 9.367188 -7.15625 10.179688 -7.382812 10.734375 -7.84375 C 11.296875 -8.300781 11.578125 -8.957031 11.578125 -9.8125 C 11.578125 -10.675781 11.296875 -11.335938 10.734375 -11.796875 C 10.179688 -12.265625 9.367188 -12.5 8.296875 -12.5 L 5.390625 -12.5 L 5.390625 -7.15625 Z M 8.296875 -7.15625 "/></g></g></g><g fill="#53494c" fill-opacity="1"><g transform="translate(189.550108, 229.171567)"><g><path d="M 9.28125 0.265625 C 7.6875 0.265625 6.242188 -0.078125 4.953125 -0.765625 C 3.671875 -1.453125 2.664062 -2.398438 1.9375 -3.609375 C 1.21875 -4.828125 0.859375 -6.191406 0.859375 -7.703125 C 0.859375 -9.210938 1.21875 -10.570312 1.9375 -11.78125 C 2.664062 -12.988281 3.671875 -13.9375 4.953125 -14.625 C 6.242188 -15.3125 7.6875 -15.65625 9.28125 -15.65625 C 10.882812 -15.65625 12.320312 -15.3125 13.59375 -14.625 C 14.875 -13.9375 15.878906 -12.988281 16.609375 -11.78125 C 17.335938 -10.570312 17.703125 -9.210938 17.703125 -7.703125 C 17.703125 -6.191406 17.335938 -4.828125 16.609375 -3.609375 C 15.878906 -2.398438 14.875 -1.453125 13.59375 -0.765625 C 12.320312 -0.078125 10.882812 0.265625 9.28125 0.265625 Z M 9.28125 -2.765625 C 10.1875 -2.765625 11.003906 -2.972656 11.734375 -3.390625 C 12.472656 -3.816406 13.050781 -4.398438 13.46875 -5.140625 C 13.894531 -5.890625 14.109375 -6.742188 14.109375 -7.703125 C 14.109375 -8.648438 13.894531 -9.5 13.46875 -10.25 C 13.050781 -11 12.472656 -11.582031 11.734375 -12 C 11.003906 -12.414062 10.1875 -12.625 9.28125 -12.625 C 8.375 -12.625 7.550781 -12.414062 6.8125 -12 C 6.082031 -11.582031 5.507812 -11 5.09375 -10.25 C 4.675781 -9.5 4.46875 -8.648438 4.46875 -7.703125 C 4.46875 -6.742188 4.675781 -5.890625 5.09375 -5.140625 C 5.507812 -4.398438 6.082031 -3.816406 6.8125 -3.390625 C 7.550781 -2.972656 8.375 -2.765625 9.28125 -2.765625 Z M 9.28125 -2.765625 "/></g></g></g><g fill="#53494c" fill-opacity="1"><g transform="translate(211.414822, 229.171567)"><g><path d="M 11.640625 0 L 8.671875 -4.296875 L 5.390625 -4.296875 L 5.390625 0 L 1.828125 0 L 1.828125 -15.40625 L 8.484375 -15.40625 C 9.847656 -15.40625 11.03125 -15.175781 12.03125 -14.71875 C 13.039062 -14.257812 13.816406 -13.613281 14.359375 -12.78125 C 14.910156 -11.945312 15.1875 -10.957031 15.1875 -9.8125 C 15.1875 -8.664062 14.910156 -7.675781 14.359375 -6.84375 C 13.804688 -6.019531 13.023438 -5.390625 12.015625 -4.953125 L 15.46875 0 Z M 11.578125 -9.8125 C 11.578125 -10.675781 11.296875 -11.335938 10.734375 -11.796875 C 10.179688 -12.265625 9.367188 -12.5 8.296875 -12.5 L 5.390625 -12.5 L 5.390625 -7.125 L 8.296875 -7.125 C 9.367188 -7.125 10.179688 -7.359375 10.734375 -7.828125 C 11.296875 -8.296875 11.578125 -8.957031 11.578125 -9.8125 Z M 11.578125 -9.8125 "/></g></g></g><g fill="#53494c" fill-opacity="1"><g transform="translate(230.881954, 229.171567)"><g><path d="M 5.015625 -12.5 L 0.09375 -12.5 L 0.09375 -15.40625 L 13.515625 -15.40625 L 13.515625 -12.5 L 8.578125 -12.5 L 8.578125 0 L 5.015625 0 Z M 5.015625 -12.5 "/></g></g></g><g fill="#53494c" fill-opacity="1"><g transform="translate(99.325787, 259.921565)"><g><path d="M 1.828125 -15.40625 L 8.828125 -15.40625 C 10.492188 -15.40625 11.96875 -15.082031 13.25 -14.4375 C 14.539062 -13.800781 15.539062 -12.90625 16.25 -11.75 C 16.957031 -10.59375 17.3125 -9.242188 17.3125 -7.703125 C 17.3125 -6.160156 16.957031 -4.804688 16.25 -3.640625 C 15.539062 -2.484375 14.539062 -1.585938 13.25 -0.953125 C 11.96875 -0.316406 10.492188 0 8.828125 0 L 1.828125 0 Z M 8.640625 -2.921875 C 10.179688 -2.921875 11.410156 -3.347656 12.328125 -4.203125 C 13.242188 -5.066406 13.703125 -6.234375 13.703125 -7.703125 C 13.703125 -9.171875 13.242188 -10.332031 12.328125 -11.1875 C 11.410156 -12.039062 10.179688 -12.46875 8.640625 -12.46875 L 5.390625 -12.46875 L 5.390625 -2.921875 Z M 8.640625 -2.921875 "/></g></g></g><g fill="#53494c" fill-opacity="1"><g transform="translate(120.79457, 259.921565)"><g><path d="M 1.828125 -15.40625 L 5.390625 -15.40625 L 5.390625 0 L 1.828125 0 Z M 1.828125 -15.40625 "/></g></g></g><g fill="#53494c" fill-opacity="1"><g transform="translate(131.309298, 259.921565)"><g><path d="M 11.96875 -3.296875 L 4.8125 -3.296875 L 3.453125 0 L -0.203125 0 L 6.671875 -15.40625 L 10.1875 -15.40625 L 17.078125 0 L 13.328125 0 Z M 10.84375 -6 L 8.40625 -11.90625 L 5.96875 -6 Z M 10.84375 -6 "/></g></g></g><g fill="#53494c" fill-opacity="1"><g transform="translate(151.458313, 259.921565)"><g><path d="M 12.234375 -7.9375 L 15.484375 -7.9375 L 15.484375 -1.6875 C 14.648438 -1.0625 13.679688 -0.578125 12.578125 -0.234375 C 11.484375 0.0976562 10.378906 0.265625 9.265625 0.265625 C 7.660156 0.265625 6.21875 -0.0703125 4.9375 -0.75 C 3.664062 -1.4375 2.664062 -2.382812 1.9375 -3.59375 C 1.21875 -4.800781 0.859375 -6.171875 0.859375 -7.703125 C 0.859375 -9.222656 1.21875 -10.585938 1.9375 -11.796875 C 2.664062 -13.015625 3.675781 -13.960938 4.96875 -14.640625 C 6.257812 -15.316406 7.710938 -15.65625 9.328125 -15.65625 C 10.679688 -15.65625 11.90625 -15.425781 13 -14.96875 C 14.101562 -14.519531 15.03125 -13.863281 15.78125 -13 L 13.484375 -10.890625 C 12.390625 -12.046875 11.0625 -12.625 9.5 -12.625 C 8.519531 -12.625 7.644531 -12.414062 6.875 -12 C 6.113281 -11.59375 5.519531 -11.015625 5.09375 -10.265625 C 4.675781 -9.523438 4.46875 -8.671875 4.46875 -7.703125 C 4.46875 -6.742188 4.675781 -5.890625 5.09375 -5.140625 C 5.519531 -4.398438 6.113281 -3.816406 6.875 -3.390625 C 7.632812 -2.972656 8.492188 -2.765625 9.453125 -2.765625 C 10.484375 -2.765625 11.410156 -2.988281 12.234375 -3.4375 Z M 12.234375 -7.9375 "/></g></g></g><g fill="#53494c" fill-opacity="1"><g transform="translate(171.717307, 259.921565)"><g><path d="M 15.953125 -15.40625 L 15.953125 0 L 13.03125 0 L 5.34375 -9.34375 L 5.34375 0 L 1.828125 0 L 1.828125 -15.40625 L 4.78125 -15.40625 L 12.4375 -6.046875 L 12.4375 -15.40625 Z M 15.953125 -15.40625 "/></g></g></g><g fill="#53494c" fill-opacity="1"><g transform="translate(192.790158, 259.921565)"><g><path d="M 9.28125 0.265625 C 7.6875 0.265625 6.242188 -0.078125 4.953125 -0.765625 C 3.671875 -1.453125 2.664062 -2.398438 1.9375 -3.609375 C 1.21875 -4.828125 0.859375 -6.191406 0.859375 -7.703125 C 0.859375 -9.210938 1.21875 -10.570312 1.9375 -11.78125 C 2.664062 -12.988281 3.671875 -13.9375 4.953125 -14.625 C 6.242188 -15.3125 7.6875 -15.65625 9.28125 -15.65625 C 10.882812 -15.65625 12.320312 -15.3125 13.59375 -14.625 C 14.875 -13.9375 15.878906 -12.988281 16.609375 -11.78125 C 17.335938 -10.570312 17.703125 -9.210938 17.703125 -7.703125 C 17.703125 -6.191406 17.335938 -4.828125 16.609375 -3.609375 C 15.878906 -2.398438 14.875 -1.453125 13.59375 -0.765625 C 12.320312 -0.078125 10.882812 0.265625 9.28125 0.265625 Z M 9.28125 -2.765625 C 10.1875 -2.765625 11.003906 -2.972656 11.734375 -3.390625 C 12.472656 -3.816406 13.050781 -4.398438 13.46875 -5.140625 C 13.894531 -5.890625 14.109375 -6.742188 14.109375 -7.703125 C 14.109375 -8.648438 13.894531 -9.5 13.46875 -10.25 C 13.050781 -11 12.472656 -11.582031 11.734375 -12 C 11.003906 -12.414062 10.1875 -12.625 9.28125 -12.625 C 8.375 -12.625 7.550781 -12.414062 6.8125 -12 C 6.082031 -11.582031 5.507812 -11 5.09375 -10.25 C 4.675781 -9.5 4.46875 -8.648438 4.46875 -7.703125 C 4.46875 -6.742188 4.675781 -5.890625 5.09375 -5.140625 C 5.507812 -4.398438 6.082031 -3.816406 6.8125 -3.390625 C 7.550781 -2.972656 8.375 -2.765625 9.28125 -2.765625 Z M 9.28125 -2.765625 "/></g></g></g><g fill="#53494c" fill-opacity="1"><g transform="translate(214.654872, 259.921565)"><g><path d="M 6.890625 0.265625 C 5.671875 0.265625 4.492188 0.101562 3.359375 -0.21875 C 2.222656 -0.550781 1.304688 -0.984375 0.609375 -1.515625 L 1.828125 -4.203125 C 2.484375 -3.710938 3.265625 -3.320312 4.171875 -3.03125 C 5.085938 -2.738281 6 -2.59375 6.90625 -2.59375 C 7.914062 -2.59375 8.660156 -2.742188 9.140625 -3.046875 C 9.628906 -3.347656 9.875 -3.75 9.875 -4.25 C 9.875 -4.613281 9.726562 -4.914062 9.4375 -5.15625 C 9.15625 -5.394531 8.789062 -5.585938 8.34375 -5.734375 C 7.894531 -5.890625 7.289062 -6.050781 6.53125 -6.21875 C 5.363281 -6.5 4.40625 -6.78125 3.65625 -7.0625 C 2.90625 -7.34375 2.257812 -7.789062 1.71875 -8.40625 C 1.1875 -9.019531 0.921875 -9.84375 0.921875 -10.875 C 0.921875 -11.757812 1.160156 -12.566406 1.640625 -13.296875 C 2.128906 -14.023438 2.859375 -14.597656 3.828125 -15.015625 C 4.804688 -15.441406 6 -15.65625 7.40625 -15.65625 C 8.394531 -15.65625 9.359375 -15.535156 10.296875 -15.296875 C 11.234375 -15.066406 12.054688 -14.734375 12.765625 -14.296875 L 11.65625 -11.59375 C 10.238281 -12.394531 8.816406 -12.796875 7.390625 -12.796875 C 6.390625 -12.796875 5.648438 -12.632812 5.171875 -12.3125 C 4.703125 -12 4.46875 -11.578125 4.46875 -11.046875 C 4.46875 -10.515625 4.738281 -10.117188 5.28125 -9.859375 C 5.832031 -9.609375 6.675781 -9.359375 7.8125 -9.109375 C 8.976562 -8.828125 9.9375 -8.546875 10.6875 -8.265625 C 11.4375 -7.992188 12.078125 -7.554688 12.609375 -6.953125 C 13.148438 -6.347656 13.421875 -5.535156 13.421875 -4.515625 C 13.421875 -3.628906 13.175781 -2.820312 12.6875 -2.09375 C 12.195312 -1.375 11.457031 -0.800781 10.46875 -0.375 C 9.488281 0.0507812 8.296875 0.265625 6.890625 0.265625 Z M 6.890625 0.265625 "/></g></g></g><g fill="#53494c" fill-opacity="1"><g transform="translate(231.98839, 259.921565)"><g><path d="M 5.015625 -12.5 L 0.09375 -12.5 L 0.09375 -15.40625 L 13.515625 -15.40625 L 13.515625 -12.5 L 8.578125 -12.5 L 8.578125 0 L 5.015625 0 Z M 5.015625 -12.5 "/></g></g></g><g fill="#53494c" fill-opacity="1"><g transform="translate(248.881986, 259.921565)"><g><path d="M 1.828125 -15.40625 L 5.390625 -15.40625 L 5.390625 0 L 1.828125 0 Z M 1.828125 -15.40625 "/></g></g></g><g fill="#53494c" fill-opacity="1"><g transform="translate(259.396714, 259.921565)"><g><path d="M 7.4375 -6.046875 L 5.375 -3.890625 L 5.375 0 L 1.828125 0 L 1.828125 -15.40625 L 5.375 -15.40625 L 5.375 -8.203125 L 12.1875 -15.40625 L 16.140625 -15.40625 L 9.765625 -8.53125 L 16.515625 0 L 12.359375 0 Z M 7.4375 -6.046875 "/></g></g></g></svg>